<svg id="visual" viewBox="0 0 1440 300" width="1440" height="300" xmlns="http://www.w3.org/2000/svg" xmlns:xlink="http://www.w3.org/1999/xlink" version="1.1"><path d="M0 44L34.3 44.5C68.7 45 137.3 46 205.8 52.2C274.3 58.3 342.7 69.7 411.2 77C479.7 84.3 548.3 87.7 617 91.7C685.7 95.7 754.3 100.3 823 95.7C891.7 91 960.3 77 1028.8 73C1097.3 69 1165.7 75 1234.2 74.2C1302.7 73.3 1371.3 65.7 1405.7 61.8L1440 58L1440 0L1405.7 0C1371.3 0 1302.7 0 1234.2 0C1165.7 0 1097.3 0 1028.8 0C960.3 0 891.7 0 823 0C754.3 0 685.7 0 617 0C548.3 0 479.7 0 411.2 0C342.7 0 274.3 0 205.8 0C137.3 0 68.7 0 34.3 0L0 0Z" fill="#0066FF" stroke-linecap="round" stroke-linejoin="miter"></path></svg>